<?xml version="1.0" encoding="UTF-8" standalone="no"?>
<svg
   id="e0c86268-5041-4a04-8ac6-4eb6a19aa6ed"
   data-name="Layer 1"
   width="865.76"
   height="682.89"
   viewBox="0 0 865.76 682.89"
   version="1.1"
   sodipodi:docname="Coding-workshop.svg"
   inkscape:version="1.2.2 (b0a8486541, 2022-12-01)"
   inkscape:export-filename="Coding-workshop.png"
   inkscape:export-xdpi="55.442616"
   inkscape:export-ydpi="55.442616"
   xmlns:inkscape="http://www.inkscape.org/namespaces/inkscape"
   xmlns:sodipodi="http://sodipodi.sourceforge.net/DTD/sodipodi-0.dtd"
   xmlns="http://www.w3.org/2000/svg"
   xmlns:svg="http://www.w3.org/2000/svg">
  <defs
     id="defs3701" />
  <sodipodi:namedview
     id="namedview3699"
     pagecolor="#ffffff"
     bordercolor="#111111"
     borderopacity="1"
     inkscape:showpageshadow="0"
     inkscape:pageopacity="0"
     inkscape:pagecheckerboard="1"
     inkscape:deskcolor="#d1d1d1"
     showgrid="false"
     inkscape:zoom="1.0225671"
     inkscape:cx="575.0234"
     inkscape:cy="452.78203"
     inkscape:window-width="2560"
     inkscape:window-height="1403"
     inkscape:window-x="2560"
     inkscape:window-y="0"
     inkscape:window-maximized="1"
     inkscape:current-layer="e0c86268-5041-4a04-8ac6-4eb6a19aa6ed" />
  <rect
     x="293.36"
     y="105.32"
     width="304.99"
     height="207"
     fill="#2f2e41"
     id="rect3123" />
  <rect
     x="293.36"
     y="105.32"
     width="304.99"
     height="207"
     fill="#fff"
     opacity="0.5"
     style="isolation:isolate"
     id="rect3125" />
  <rect
     x="296.61"
     y="109.22"
     width="298.49"
     height="199.21"
     fill="#f5f5f5"
     id="rect3127" />
  <polygon
     points="318.58 386.58 382.05 386.61 390.84 429.4 327.04 429.41 318.58 386.58"
     fill="#2f2e41"
     id="polygon3129" />
  <polygon
     points="319.96 388.02 380.71 388.02 389.3 427.2 328.23 427.21 319.96 388.02"
     fill="#fff"
     id="polygon3131" />
  <rect
     x="279.18"
     y="308.21"
     width="328.23"
     height="5.5"
     fill="#2f2e41"
     id="rect3180" />
  <rect
     x="279.18"
     y="308.21"
     width="328.23"
     height="5.5"
     fill="#fff"
     opacity="0.3"
     style="isolation:isolate"
     id="rect3182" />
  <rect
     x="472.79"
     y="178.14"
     width="39.9"
     height="5.13"
     rx="2.51"
     fill="#5EA4E2"
     id="rect3210" />
  <rect
     x="472.79"
     y="190.1"
     width="98.22"
     height="5.13"
     rx="2.51"
     fill="#5EA4E2"
     id="rect3212" />
  <rect
     x="472.79"
     y="200.36"
     width="95.35"
     height="5.13"
     rx="2.51"
     fill="#5EA4E2"
     id="rect3214" />
  <rect
     x="472.79"
     y="210.61"
     width="104.96"
     height="5.13"
     rx="2.51"
     fill="#5EA4E2"
     id="rect3216" />
  <rect
     x="472.79"
     y="220.87"
     width="95.99"
     height="5.13"
     rx="2.51"
     fill="#5EA4E2"
     id="rect3218" />
  <rect
     x="472.79"
     y="231.12"
     width="95.99"
     height="5.13"
     rx="2.51"
     fill="#5EA4E2"
     id="rect3220" />
  <rect
     x="472.79"
     y="241.38"
     width="101.78"
     height="5.13"
     rx="2.51"
     fill="#5EA4E2"
     id="rect3222" />
  <path
     d="M553.91,256.76H475.37a2.51,2.51,0,0,1-2.51-2.51h0a2.5,2.5,0,0,1,2.51-2.5H554a2.51,2.51,0,0,1,2.51,2.5h0a2.51,2.51,0,0,1-2.51,2.51Z"
     fill="#5EA4E2"
     id="path3224" />
  <g
     opacity="0.3"
     id="g3242">
    <rect
       x="472.79"
       y="178.14"
       width="39.9"
       height="5.13"
       rx="2.51"
       fill="#fff"
       id="rect3226" />
    <rect
       x="472.79"
       y="190.1"
       width="98.22"
       height="5.13"
       rx="2.51"
       fill="#fff"
       id="rect3228" />
    <rect
       x="472.79"
       y="200.36"
       width="95.35"
       height="5.13"
       rx="2.51"
       fill="#fff"
       id="rect3230" />
    <rect
       x="472.79"
       y="210.61"
       width="104.96"
       height="5.13"
       rx="2.51"
       fill="#fff"
       id="rect3232" />
    <rect
       x="472.79"
       y="220.87"
       width="95.99"
       height="5.13"
       rx="2.51"
       fill="#fff"
       id="rect3234" />
    <rect
       x="472.79"
       y="231.12"
       width="95.99"
       height="5.13"
       rx="2.51"
       fill="#fff"
       id="rect3236" />
    <rect
       x="472.79"
       y="241.38"
       width="101.78"
       height="5.13"
       rx="2.51"
       fill="#fff"
       id="rect3238" />
    <path
       d="M553.91,256.76H475.37a2.51,2.51,0,0,1-2.51-2.51h0a2.5,2.5,0,0,1,2.51-2.5H554a2.51,2.51,0,0,1,2.51,2.5h0a2.51,2.51,0,0,1-2.51,2.51Z"
       fill="#fff"
       id="path3240" />
  </g>
  <path
     d="M330.91,244c25.95-3.12,52.19-6,78.53-6.81,5.17-.16,10.35-.2,15.52,0v-2.54c-22.79-.57-45.65,1.64-68.08,4q-13,1.35-26,2.85C330.68,241.49,331.07,244,330.91,244Z"
     fill="#5EA4E2"
     id="path3244" />
  <path
     d="M343.37,248.94c16.43-3.23,33-6.22,49.7-7,3.28-.15,6.55-.21,9.83-.08V239.2c-14.37-.59-28.89,1.69-43.09,4.1q-8.22,1.42-16.44,3C343.23,246.32,343.47,248.93,343.37,248.94Z"
     fill="#5EA4E2"
     id="path3246" />
  <path
     d="M311.57,175.83l-2.49.91,2.49.91v.94L308,177.24v-1l3.56-1.43Z"
     fill="#407bff"
     id="path3282" />
  <path
     d="M314.29,173.07h1l-2.47,7.05h-1Z"
     fill="#5EA4E2"
     id="path3284" />
  <path
     d="M319,176.26v1l-3.56,1.35v-.94l2.49-.91-2.49-.91v-.93Z"
     fill="#407bff"
     id="path3286" />
  <g
     opacity="0.2"
     id="g3306">
    <path
       d="M318.5,186.53H308.32a1,1,0,0,1-.82-1.05.94.94,0,0,1,.82-.82H318.5a.94.94,0,0,1,.24,1.87Z"
       id="path3288" />
    <path
       d="M318.5,192.64H308.32a1,1,0,0,1-.82-1,.94.94,0,0,1,.82-.82H318.5a.94.94,0,0,1,.24,1.87A1,1,0,0,1,318.5,192.64Z"
       id="path3290" />
    <path
       d="M318.5,198.79H308.32a1,1,0,0,1-.82-1,1,1,0,0,1,.82-.82H318.5a1,1,0,0,1,1.05.82.93.93,0,0,1-.81,1A1,1,0,0,1,318.5,198.79Z"
       id="path3292" />
    <path
       d="M318.5,204.86H308.32a1,1,0,0,1-.82-1.05.94.94,0,0,1,.82-.82H318.5a.94.94,0,0,1,.24,1.87Z"
       id="path3294" />
    <path
       d="M318.5,211H308.32a.94.94,0,0,1,0-1.88H318.5a.94.94,0,0,1,0,1.88Z"
       id="path3296" />
    <path
       d="M318.5,217.08H308.32a.94.94,0,1,1,0-1.88H318.5a.94.94,0,0,1,0,1.88Z"
       id="path3298" />
    <path
       d="M318.5,223.19H308.32a.94.94,0,0,1,0-1.88H318.5a.94.94,0,0,1,0,1.88Z"
       id="path3300" />
    <path
       d="M318.5,229.3H308.32a.94.94,0,1,1,0-1.88H318.5a.94.94,0,0,1,0,1.88Z"
       id="path3302" />
    <path
       d="M318.5,235.4H308.32a1,1,0,0,1-.82-1.05.94.94,0,0,1,.82-.82H318.5a.94.94,0,0,1,.24,1.87Z"
       id="path3304" />
  </g>
  <path
     d="M348,217h-20.9a.94.94,0,0,1,0-1.86H348a.94.94,0,0,1,0,1.86Z"
     fill="#5EA4E2"
     id="path3308" />
  <path
     d="M348,186.53h-20.9a1,1,0,0,1-.82-1.05.94.94,0,0,1,.82-.82H348a.93.93,0,0,1,.81,1.05A.94.94,0,0,1,348,186.53Z"
     fill="#5EA4E2"
     id="path3310" />
  <path
     d="M407.93,217H353.5a.94.94,0,1,1-.23-1.86h54.66a.94.94,0,0,1,.23,1.86Z"
     fill="#2f2e41"
     id="path3312" />
  <g
     opacity="0.2"
     id="g3316">
    <path
       d="M414.69,192.64H398.92a.94.94,0,0,1-1-.82.93.93,0,0,1,.81-1,.88.88,0,0,1,.23,0h15.77a.94.94,0,0,1,1.05.82,1,1,0,0,1-.82,1A.88.88,0,0,1,414.69,192.64Z"
       fill="#263238"
       id="path3314" />
  </g>
  <path
     d="M362.2,222.25H329.87a.94.94,0,1,1,0-1.88H362.2a.94.94,0,0,1,0,1.88Z"
     fill="#2f2e41"
     id="path3318" />
  <path
     d="M400.7,222.25H368.86a.94.94,0,1,1,0-1.88H400.7a.94.94,0,0,1,0,1.88Z"
     fill="#5EA4E2"
     id="path3320" />
  <path
     d="M440.26,222.25H405.89a.94.94,0,1,1,0-1.88h34.37a.94.94,0,1,1,0,1.88Z"
     fill="#2f2e41"
     id="path3322" />
  <g
     opacity="0.2"
     id="g3326">
    <path
       d="M365.2,228.36H345.75a.94.94,0,1,1,0-1.88h19.42a.94.94,0,0,1,0,1.88Z"
       fill="#263238"
       id="path3324" />
  </g>
  <path
     d="M392.67,228.36H371.49a.94.94,0,1,1,0-1.88h21.18a.94.94,0,0,1,0,1.88Z"
     fill="#2f2e41"
     id="path3328" />
  <g
     opacity="0.2"
     id="g3332">
    <path
       d="M431.83,228.36H397.49a.94.94,0,1,1,0-1.88h34.34a.94.94,0,0,1,0,1.88Z"
       fill="#263238"
       id="path3330" />
  </g>
  <g
     opacity="0.2"
     id="g3336">
    <path
       d="M356,192.64h-26.1a1,1,0,0,1-1.05-.82.94.94,0,0,1,.82-1,.89.89,0,0,1,.23,0H356a.94.94,0,0,1,.23,1.87.88.88,0,0,1-.23,0Z"
       fill="#263238"
       id="path3334" />
  </g>
  <path
     d="M359.24,198.79H329.87a.94.94,0,0,1-.23-1.87h29.6a1,1,0,0,1,.82,1.05A.93.93,0,0,1,359.24,198.79Z"
     fill="#5EA4E2"
     id="path3338" />
  <g
     opacity="0.2"
     id="g3342">
    <path
       d="M408.3,198.79H364a1,1,0,0,1-.82-1,1,1,0,0,1,.82-.82H408.3a.94.94,0,0,1,1,.82.93.93,0,0,1-.81,1A.88.88,0,0,1,408.3,198.79Z"
       fill="#263238"
       id="path3340" />
  </g>
  <path
     d="M435,186.53H390.76a1,1,0,0,1-1.05-.82,1,1,0,0,1,.82-1.05H435a.94.94,0,1,1,.23,1.87Z"
     fill="#263238"
     id="path3344" />
  <path
     d="M440.26,198.79H413.67a.94.94,0,0,1-.24-1.87h26.83a1,1,0,0,1,.82,1.05.94.94,0,0,1-.82.82Z"
     fill="#2f2e41"
     id="path3346" />
  <g
     opacity="0.2"
     id="g3350">
    <path
       d="M356.05,204.86H339.23a.94.94,0,1,1,0-1.88h16.82a.94.94,0,0,1,0,1.88Z"
       fill="#263238"
       id="path3348" />
  </g>
  <g
     opacity="0.2"
     id="g3354">
    <path
       d="M394,204.86H361.78a.94.94,0,1,1,0-1.88H394a.94.94,0,0,1,0,1.88Z"
       fill="#263238"
       id="path3352" />
  </g>
  <g
     opacity="0.2"
     id="g3358">
    <path
       d="M385.48,186.53H353.22a1,1,0,0,1-.82-1.05.93.93,0,0,1,.82-.82h32.26a.94.94,0,0,1,.23,1.87Z"
       fill="#263238"
       id="path3356" />
  </g>
  <path
     d="M431.83,204.86h-31.5a.94.94,0,1,1,0-1.88h31.5a.94.94,0,0,1,0,1.88Z"
     fill="#2f2e41"
     id="path3360" />
  <path
     d="M393.65,192.64H362.16a1,1,0,0,1-.82-1,.94.94,0,0,1,.82-.82h31.49a.94.94,0,1,1,.23,1.87A.88.88,0,0,1,393.65,192.64Z"
     fill="#2f2e41"
     id="path3362" />
  <path
     d="M368.41,211H348.6a.94.94,0,0,1,0-1.88h19.81a.94.94,0,0,1,0,1.88Z"
     fill="#2f2e41"
     id="path3364" />
  <g
     opacity="0.2"
     id="g3368">
    <path
       d="M391.33,211H372.49a.94.94,0,0,1,0-1.88h18.84a.94.94,0,0,1,0,1.88Z"
       fill="#263238"
       id="path3366" />
  </g>
  <path
     d="M431.83,211H397.3a.94.94,0,0,1,0-1.88h34.53a.94.94,0,0,1,0,1.88Z"
     fill="#5EA4E2"
     id="path3370" />
  <g
     opacity="0.2"
     id="g3374">
    <path
       d="M372.82,234.47H348.6a.94.94,0,0,1,0-1.88h24.22a.94.94,0,0,1,0,1.88Z"
       fill="#263238"
       id="path3372" />
  </g>
  <rect
     x="313.7"
     y="430.51"
     width="299.12"
     height="12.35"
     fill="#a7a9ac"
     id="rect3488" />
  <rect
     x="326.5"
     y="428.3"
     width="69.29"
     height="2.21"
     fill="#2f2e41"
     id="rect3490" />
  <rect
     x="326.5"
     y="428.3"
     width="69.29"
     height="2.21"
     opacity="0.2"
     id="rect3492" />
  <polygon
     points="602.09 627.59 595.42 627.59 561.38 442.86 577.66 442.86 602.09 627.59"
     fill="#bcbec0"
     id="polygon3494" />
  <polygon
     points="612.82 500.89 613.75 508.08 674.35 507.63 663.68 493.63 612.82 500.89"
     fill="#bcbec0"
     id="polygon3496" />
  <path
     d="M624.17,599.63H576.61L565.75,494.17s-5.68-24.81,29.21-30.5l73.15-12.92v49.62l-55.29.52Z"
     fill="#2f2e41"
     id="path3498" />
  <polygon
     points="624.68 514.07 636.57 599.63 682.58 599.63 673.79 514.07 624.68 514.07"
     fill="#2f2e41"
     id="polygon3500" />
  <path
     d="M644.36,599.63s-41.46,17.56-35.61,28H681l-2.88-28Z"
     fill="#5EA4E2"
     id="path3502" />
  <path
     d="M644.36,599.63s-41.46,17.56-35.61,28H681l-2.88-28Z"
     opacity="0.2"
     id="path3504" />
  <rect
     x="608.75"
     y="627.59"
     width="72.28"
     height="8.01"
     fill="#2f2e41"
     id="rect3506" />
  <rect
     x="608.75"
     y="627.59"
     width="72.28"
     height="8.01"
     opacity="0.2"
     id="rect3508" />
  <path
     d="M587.8,599.63S533.54,620.19,540,630H622l-3.26-30.33Z"
     fill="#5EA4E2"
     id="path3510" />
  <rect
     x="540.03"
     y="629.96"
     width="81.94"
     height="8.69"
     fill="#2f2e41"
     id="rect3512" />
  <path
     d="M766.05,518.61l23.12,117.47a3.2,3.2,0,0,0,3.13,2.57h0a3.2,3.2,0,0,0,3.14-3.79L773.29,518.61Z"
     fill="#bcbec0"
     id="path3514" />
  <path
     d="M435.83,561.71l7.79,26s10.45-13.6,22.23-14.1L462,557.46Z"
     fill="#f9b499"
     id="path3516" />
  <path
     d="M430.35,632.13c-2.45-.37,4.59-3,9.58-4.77a7.27,7.27,0,0,0,4.8-6.18,126.64,126.64,0,0,1,2.87-16.31,9.85,9.85,0,0,0-1.07-7.26c-2.13-3.64-4.86-9.06-2.91-9.93,0,0,10.45-13.77,22.23-14.1l15.59,15.59s-12.94-4.64-20.57,6.64c0,0-1.88,1.88-5,10.77a77.52,77.52,0,0,0-3,11.63C451.87,623.83,447.64,634.74,430.35,632.13Z"
     fill="#5EA4E2"
     id="path3518" />
  <path
     d="M430.35,632.13s-2.66.38-1,2.81a5.13,5.13,0,0,0,2.15,1.73c4.34,1.9,19.67,7,24.14-14.32,0,0,7.22-38,29.95-27.37,0,0-.83-4.15-4.15-5.81,0,0-16-7.22-24.24,13.89a70.67,70.67,0,0,0-4.29,15.15S451.09,635.45,430.35,632.13Z"
     fill="#e6e7e8"
     id="path3520" />
  <path
     d="M438.31,638.59s29.2,7.81,34.67-4.8c0,0,12.28-26.69,12.73-36.77a2.87,2.87,0,0,0-1.87-2.82c-3.62-1.35-12.17-3.15-18.95,6.26a48.65,48.65,0,0,0-9.25,21.89S453.08,640.23,438.31,638.59Z"
     fill="#2f2e41"
     id="path3522" />
  <path
     d="M385.54,576.13l9,14.1s10.45-13.61,22.22-14.1l-6-10.29Z"
     fill="#f9b499"
     id="path3524" />
  <path
     d="M380.59,634.52c-2.45-.37,4.59-3,9.58-4.77a7.25,7.25,0,0,0,4.8-6.18,127.46,127.46,0,0,1,2.87-16.32,9.83,9.83,0,0,0-1.07-7.25c-2.12-3.64-4.86-9.06-2.91-9.93,0,0,10.74-13.57,22.31-14.31a1.2,1.2,0,0,1,.93.37l14.58,15.43s-12.94-4.64-20.57,6.64c0,0-1.87,1.88-5,10.77a77.52,77.52,0,0,0-3,11.63C402.12,626.22,397.89,637.14,380.59,634.52Z"
     fill="#5EA4E2"
     id="path3526" />
  <path
     d="M380.59,634.52s-2.66.38-1,2.81a5.13,5.13,0,0,0,2.15,1.73c4.34,1.9,19.67,7,24.15-14.32,0,0,7.21-38,29.94-27.37,0,0-.83-4.15-4.15-5.81,0,0-16-7.22-24.24,13.89a70.67,70.67,0,0,0-4.29,15.15S401.33,637.84,380.59,634.52Z"
     fill="#e6e7e8"
     id="path3528" />
  <path
     d="M388.56,641s29.19,7.81,34.66-4.8c0,0,12.28-26.69,12.73-36.77a2.87,2.87,0,0,0-1.87-2.82c-3.62-1.35-12.17-3.15-18.94,6.26a48.59,48.59,0,0,0-9.25,21.89S403.32,642.62,388.56,641Z"
     fill="#2f2e41"
     id="path3530" />
  <rect
     x="649.18"
     y="318.37"
     width="20.34"
     height="23.63"
     fill="#f9b499"
     id="rect3532" />
  <ellipse
     cx="644.04"
     cy="318.37"
     rx="18.09"
     ry="13.71"
     transform="translate(300.39 949.29) rotate(-87.73)"
     fill="#f9b499"
     id="ellipse3534" />
  <path
     d="M649.18,335a10.77,10.77,0,0,0,5.48-5.47s3.79,9.06-5.48,12.48Z"
     fill="#f7a48b"
     id="path3536" />
  <path
     d="M631.15,312.57s-19.83-10.65,1.92-21.12c0,0-6.44-2.21-3.82-3.62,0,0,24.36-21.55,34.23-4.43,0,0,29,7,19.74,26.18,0,0,2.82,3.29-1.81,8.79l-11.89,11.15a19.7,19.7,0,0,0-5-5.39,20,20,0,0,0-6.91-3.26c-6-.89-11.17-1.72-12.75-10.54-.46-2.59-3.59-3.86-6.17-3.3C636.36,307.54,633.62,309,631.15,312.57Z"
     fill="#2f2e41"
     id="path3538" />
  <ellipse
     cx="651.48"
     cy="316.5"
     rx="3.42"
     ry="4.83"
     fill="#f9b499"
     id="ellipse3540" />
  <path
     d="M642.34,289s-7.92-1.74-4.37-7.41c0,0,18.26-12.52,25.51,1.78,0,0,17.65,3.62,21.11,15.6,0,0-4.94,2.57-6,4.86a7,7,0,0,1-1.72,2.48c-1.19,1-3,1.7-4.86-.36a7.1,7.1,0,0,1-1.31-2.2,4,4,0,0,0-3.58-2.86s-7.86,15-13.29,4.48c0,0-3-7.1-8.06-7.1,0,0-10.67,3.62-9.67-2C636.09,296.28,636.09,291.65,642.34,289Z"
     opacity="0.2"
     id="path3542" />
  <path
     d="M665.22,324.68s3.3-1.13,4.3-6.31c0,0,3.2,2.43,2.61,8.7l-2.61,2.45a17.94,17.94,0,0,0-1.95-2.61A19.56,19.56,0,0,0,665.22,324.68Z"
     opacity="0.2"
     id="path3544" />
  <path
     d="M93.05,336a15.65,15.65,0,0,0,8.39,5l5.43-14.38h-4.68S100,333.56,93.05,336Z"
     fill="#f9b499"
     id="path3546" />
  <path
     d="M193.45,552.77,216,549.69s.68,30.24,12.75,39.7c0,0-3,10.71-17,1.09,0,0-4.81-3.76-6.12-12.5,0,0,.32-10.07-4.31-15.65Z"
     fill="#f9b499"
     id="path3548" />
  <polygon
     points="193.45 552.99 216.86 559.89 216.02 549.91 193.45 552.99"
     fill="#f7a48b"
     id="polygon3550" />
  <path
     d="M146.39,394.18c-2.5,22.89,2.48,163.72,2.48,163.72-11.44,3.48-39.81,3-39.81,3-20.9-175.66-9.9-211-9.9-211L137.09,337c17.07,3.52,26.8,0,26.8,0l15.59,9.9,13.68,64.2,28.36,137.83-43.68,6c-5.78-14.69-30.66-156.19-31.43-160.61Z"
     fill="#2f2e41"
     id="path3552" />
  <path
     d="M221.52,548.93l-43.68,6c-5.78-14.69-30.66-156.19-31.43-160.61l30.25,120s7,23.81,21.86,27.32Z"
     opacity="0.2"
     id="path3554" />
  <path
     d="M137.08,337s15.67,3.43,26.81,0c0,0,6.1-62.49-8.71-95.47l-3.29-.32,3.29,9.66L129.42,252l-8.08-10.45a24,24,0,0,0-4.31-.06l17.25,31.57s5.28,7.37,4,28.69c0,0,1.6,7.07.21,21.14Z"
     fill="#e6e7e8"
     id="path3556" />
  <path
     d="M246.69,271.65s-37.73,50-49.8,42.8c0,0-13.09-7.61-16.17-12.67l2.82,49.37s-13.68,1.55-20.57,0c0,0,3.18-45.06,2.25-55.5l-13.28-54.31a47.57,47.57,0,0,1,15.19,1.9c1,.29,2,.62,3,1a40,40,0,0,1,21,17.08h0c4.82,4.92,9.27,10.43,11.92,15.91,0,0,23.36-19.76,28.49-23.35Z"
     fill="#5EA4E2"
     id="path3558" />
  <ellipse
     cx="148.23"
     cy="209.25"
     rx="17.98"
     ry="21.64"
     fill="#f9b499"
     id="ellipse3560" />
  <path
     d="M107,243.2s-1.27-8.91,6.44-12.1a3,3,0,0,0,1.12-.79c1-1.21,2.72-4.35-.57-9.41,0,0-3.74-2.85,0-9a15.68,15.68,0,0,1,2.73-3.19c1-.93,2.17-3.22-.81-8.11,0,0-6.91-19.64,17.39-19.31,0,0,3.33-11.32,21-5,0,0,10.37,4.92,14.76,13.49a16.36,16.36,0,0,1,.62,13.35,52.16,52.16,0,0,0-3.18,13,22.68,22.68,0,0,0,.21,6.1,18.66,18.66,0,0,1-.43,8.68s7.45,4.87,3.13,13.19a44.12,44.12,0,0,0-17.39-2.73s-8.22-2.64-6.46-10.71c0,0,17.47,3,20.16-19A24.3,24.3,0,0,0,164,198.93a16.62,16.62,0,0,0-1.44-2.7s-2.38,7-19.36,5c0,0-2.13,7.61-13.81,6l-1.88,15.27s2.92,15.57-6.2,19.06C121.34,241.58,110.81,241,107,243.2Z"
     fill="#2f2e41"
     id="path3562" />
  <path
     d="M117,241.52s8-4.22,8.77-13.49a5.31,5.31,0,0,0-1.49-4.17c-1.92-2-4.58-5.94-1-10.81,0,0-1,7.17,4.28,9.47,0,0,3.25,14.58-6.2,19.06Z"
     opacity="0.2"
     id="path3564" />
  <path
     d="M130.25,207.25s.87-6.31-3.11-8.47c0,0-10.45-6.09-3.15-11.17,0,0,5.77-4.58,13.33,1.7a.42.42,0,0,0,.67-.46c-.93-2.65-1.34-7.34,6.24-9.31,0,0-3.48,3.15-1.86,5.54a.56.56,0,0,0,.77.15c1.92-1.28,10.2-6.19,16.18-.22,0,0,7.22,4.8,5.68,15.59a14.7,14.7,0,0,0-2.41-4.37s-3.27,7.5-19.36,5C143.23,201.26,140,209.41,130.25,207.25Z"
     opacity="0.2"
     id="path3566" />
  <path
     d="M127.54,222.52s2.71,15.44-6.2,19.06L129.42,252l25.76-1.17-3.29-9.66s-7.32-1.81-6.41-10.57a18.61,18.61,0,0,1-12.24-9.43S130.46,223.81,127.54,222.52Z"
     fill="#f9b499"
     id="path3568" />
  <path
     d="M134.28,222.89s1.26,14.4,12.1,13.72c0,0-1.28-2-.9-6C145.48,230.63,137,228.51,134.28,222.89Z"
     fill="#f7a48b"
     id="path3570" />
  <polygon
     points="121.34 241.58 131.12 248.87 155.18 250.87 129.42 252.03 121.34 241.58"
     fill="#f7a48b"
     id="polygon3572" />
  <path
     d="M172.09,260l6.47,5.14s-6,23.72-13.34,30.52l1.9-29.36L163,258l4.16-14.76c1,.29,2,.62,3,1l8.43,14.59Z"
     opacity="0.2"
     id="path3574" />
  <path
     d="M135.29,351.84l-36.13-2c1.08-8.73,10.71-30.29,10.71-30.29,3.35-11.3-7.7-33.11-7.7-33.11L87.8,299.05,93,306.74h0l9,13.45a5.88,5.88,0,0,1,.69,5.12c-2.85,8.51-8.92,10.95-13,11.59a7.54,7.54,0,0,1-6.53-2.22c-18.31-18.74-23-37.17-23-37.17C53.41,282.39,98,246.8,98,246.8l23.38,6.81c4.8,4.11,6.75,18,6.75,18l10.18,30.13C141,310.43,135.29,351.84,135.29,351.84Z"
     fill="#5EA4E2"
     id="path3576" />
  <path
     d="M102.67,325.32c-2.85,8.51-8.92,10.95-13,11.59a7.54,7.54,0,0,1-6.53-2.22s16.94-.73,16.07-13.82L93,306.75l9,13.45A5.88,5.88,0,0,1,102.67,325.32Z"
     opacity="0.2"
     id="path3578" />
  <polygon
     points="110.65 328.57 112.44 323.95 128.08 321.87 126.82 326.61 110.65 328.57"
     opacity="0.2"
     id="polygon3580" />
  <polygon
     points="173.42 322.92 173.42 326.61 182.25 328.57 182.06 325.22 173.42 322.92"
     opacity="0.2"
     id="polygon3582" />
  <path
     d="M87.8,299.05l-8-3.4s8.47.31,22.33-9.18Z"
     opacity="0.2"
     id="path3584" />
  <path
     d="M231.54,253.88c-13.45,13.63-29.52,36-29.52,36,.29-6-10.56-27.87-10.88-28.54,4.82,4.92,9.26,10.42,11.91,15.91C203.05,277.23,226.41,257.46,231.54,253.88Z"
     opacity="0.2"
     id="path3586" />
  <path
     d="M137.08,337s3.19-25.28,1.18-35.21c0,0,2.47-4.72,13.13-3.42a28.58,28.58,0,0,1,6.85,1.85,8.74,8.74,0,0,0,7-.09s.37,23-1.37,36.87A57,57,0,0,1,137.08,337Z"
     fill="#d1d3d4"
     id="path3588" />
  <path
     d="M136.47,560c-1.56,23.93-7.89,32.29-11.77,35.2a4.73,4.73,0,0,1-7.16-1.84,24.4,24.4,0,0,1-1.44-9.14c-.12-10.32,2.77-23.28,2.77-23.28Z"
     fill="#f9b499"
     id="path3590" />
  <path
     d="M136.47,605.65c-.74,11.32-34.39,4.69-34.39,4.69-5.47-2,14-26.16,14-26.16a24.4,24.4,0,0,0,1.44,9.14,4.73,4.73,0,0,0,7.16,1.84c3.88-2.91,10.21-11.27,11.77-35.2l2.76-.29C140.46,571.48,136.47,605.65,136.47,605.65Z"
     fill="#5EA4E2"
     id="path3592" />
  <path
     d="M193.45,552.77s-6.42.75-6.74,11.84l6.74,41.73h4.67L202.36,586s6.52,29.83,39.12,22.65c0,0,18.34-3.43,11.5-9.24a8.14,8.14,0,0,0-3-1.57c-4.33-1.28-17.89-5.42-21.16-8.42,0,0-1,5.21-10.44,3.58,0,0-10.43-1-12.06-16.3,0,0,0-11.08-4.89-14.34Z"
     fill="#5EA4E2"
     id="path3594" />
  <path
     d="M233.84,256.56s3.54-.21,9.11-7a9.82,9.82,0,0,1,10.22-2.16s7.12,1.15,6.81,4.29v2.21s5.56.3,2.15,4.33a4.08,4.08,0,0,1-2.16,4.33,3.71,3.71,0,0,1-3.13,4.41s-1,4.53-5.3,2.19a21.12,21.12,0,0,0-7,0Z"
     fill="#f9b499"
     id="path3596" />
  <path
     d="M483.13,384.56a13.64,13.64,0,0,1-9.49-7.53,5.92,5.92,0,0,1-.63-3.6s-3.09,2.48-.54,8c0,0,0,.07,0,0-1.09-1.4-7.3-10.3,4.16-16.51C476.59,365,475.32,379.61,483.13,384.56Z"
     fill="none"
     stroke="#000"
     stroke-miterlimit="10"
     id="path3598" />
  <path
     d="M455.17,348.55s.86-6.84,5.16-6.84h13.94l-10.18,14.43,25.27,4v87.14H440.8v-9S379,439.71,380.26,428c0,0-2.49-9.2,6.47-10.2l32.84-9.2S427,360.84,442,356.36C442,356.36,451.7,352.93,455.17,348.55Z"
     fill="#5EA4E2"
     id="path3600" />
  <path
     d="M380.26,428l.8,2.49H357.19a17,17,0,0,1,1.2-1.92c2-2.91,6.54-8.13,13.1-8.71l7.8-.49,3.46-.22S378.77,421.65,380.26,428Z"
     fill="#f9b499"
     id="path3602" />
  <path
     d="M380.26,428l.8,2.49H357.19a17,17,0,0,1,1.2-1.92s16.33.38,16.39,0,3.22-1.12,4.51-9.2l3.46-.22S378.77,421.65,380.26,428Z"
     fill="#f7a48b"
     id="path3604" />
  <path
     d="M440.8,438.22s10.24-2.48,11.68-42.72c0,0,.2,17.2,12.91,26.11v25.65H440.8Z"
     opacity="0.2"
     id="path3606" />
  <path
     d="M454.8,504.44c-19.28.85-40.6-3.45-40.6-3.45l17,70.18a1.59,1.59,0,0,1-1.56,2,152.39,152.39,0,0,0-45.32,6.38,4.18,4.18,0,0,1-5.32-3.17l-3.53-17.4-13.71-67.6c-8.56-33.1,31.61-39.06,31.61-39.06,39.05-5.94,47.44-7.44,47.44-7.44v2.43h14a204.34,204.34,0,0,0-2.37,22C451.27,491.83,454.8,504.44,454.8,504.44Z"
     fill="#2f2e41"
     id="path3608" />
  <path
     d="M414.2,501l17,70.18a1.59,1.59,0,0,1-1.56,2,152.39,152.39,0,0,0-45.32,6.38,4.18,4.18,0,0,1-5.32-3.17l-3.53-17.4c6.56-10.52,7.28-40.08,7.28-40.08-3.55-36.08,24.93-36.45,24.93-36.45,22.49.75,44.75-13.21,44.75-13.21v0c-1.16,22.61,2.37,35.22,2.37,35.22C435.52,505.29,414.2,501,414.2,501Z"
     opacity="0.2"
     id="path3610" />
  <path
     d="M430.51,568.33l48.69-2.17L472.58,511l2.76-13.81-20.54,7.3a186.74,186.74,0,0,1-33.46-2.23l1,32.41Z"
     fill="#2f2e41"
     id="path3612" />
  <path
     d="M556.58,520.9,582,644a3,3,0,0,0,2.89,2.35h0a2.94,2.94,0,0,0,2.88-3.51L563.88,520.9Z"
     fill="#bcbec0"
     id="path3614" />
  <path
     d="M462,529l23.22,119.27a3.06,3.06,0,0,0,3,2.48h0a3.07,3.07,0,0,0,3-3.64L468,523.77s-2.06-6.1-4.78-1.33c0,0-.06,2.08-4.16-1.1,0,0-1.12-2-13.61-2.12l-65.55-4.69s-5-2.31-10,3.36c0,0-3,4.17-2.31,13.63l-7.1,119.23h5.6l7.63-122.88s-.33-10,11.12-8.63l69.89,5.84S461.12,524.4,462,529Z"
     fill="#bcbec0"
     id="path3616" />
  <path
     d="M460.74,515.15h5.06a0,0,0,0,1,0,0v129a2.18,2.18,0,0,1-2.18,2.18h-.7a2.18,2.18,0,0,1-2.18-2.18v-129A0,0,0,0,1,460.74,515.15Z"
     transform="matrix(1, 0.08, -0.08, 1, 46.37, -34.14)"
     fill="#bcbec0"
     id="path3618" />
  <polygon
     points="332.76 627.59 339.43 627.59 373.46 442.86 357.19 442.86 332.76 627.59"
     fill="#bcbec0"
     id="polygon3620" />
  <path
     d="M670.4,514.07l24.75,127a3.18,3.18,0,0,0,3.13,2.57h0a3.19,3.19,0,0,0,3.13-3.79L678.14,514.07Z"
     fill="#bcbec0"
     id="path3622" />
  <path
     d="M585.46,527.86l-5.88,112.36a3.58,3.58,0,0,1-3.58,3.4h0a3.59,3.59,0,0,1-3.58-3.8l7.36-121.21s1.26-8.47,11.71-7.73l75.23,5.38s3.09,2.93,4.8,3.56l-77.78-4.47S586.17,514.47,585.46,527.86Z"
     fill="#bcbec0"
     id="path3624" />
  <path
     d="M647.28,454.43,644.63,419s-3.37,23-25.51,20l-47-3.83,3.17-26.55h38.86s8.09-58.93,31.08-62.81c0,0-.32-6.11,16.51-10.51,0,0,14.9-3.74,18.46,4,0,0,19.43,2.91,30.44,31.89v71.68l-42.53,7.89Z"
     fill="#5EA4E2"
     id="path3626" />
  <path
     d="M644.58,417.65l10-24.61s11.37,21.09,13.49,32.37c0,0-2.83,20.2-3.42,25.94l-17.41,3.08Z"
     opacity="0.2"
     id="path3628" />
  <polygon
     points="575.29 408.58 571.02 408.58 567.02 431.91 572.41 431.91 575.29 408.58"
     fill="#f9b499"
     id="polygon3630" />
  <ellipse
     cx="129.42"
     cy="215.07"
     rx="6.16"
     ry="7.82"
     fill="#f9b499"
     id="ellipse3632" />
  <path
     d="M98,246.8s10.56-6.06,19.08-5.28l17.25,31.57s5.3,8.13,4,28.7c0,0-11.07-23.56-20-31.35l5.05-9.29-11.21,5.14Z"
     fill="#5EA4E2"
     id="path3634" />
  <path
     d="M98,246.8s10.56-6.06,19.08-5.28l17.25,31.57s5.3,8.13,4,28.7c0,0-11.07-23.56-20-31.35l5.05-9.29-11.21,5.14Z"
     fill="#fff"
     opacity="0.4"
     id="path3636" />
  <path
     d="M165.22,295.65s-8.89-36.35-13.33-54.45a57.11,57.11,0,0,1,15.42,1.42L173.42,258l-7.22.49,7.22,8.8S169.62,286.86,165.22,295.65Z"
     fill="#5EA4E2"
     id="path3638" />
  <path
     d="M165.22,295.65s-8.89-36.35-13.33-54.45a57.11,57.11,0,0,1,15.42,1.42L173.42,258l-7.22.49,7.22,8.8S169.62,286.86,165.22,295.65Z"
     fill="#fff"
     opacity="0.4"
     id="path3640" />
  <rect
     x="227.77"
     y="234.31"
     width="90.32"
     height="1.16"
     transform="translate(-76.8 320.65) rotate(-54.49)"
     fill="#2f2e41"
     id="rect3642" />
  <path
     d="M253.54,252.69l5.21,4.92a.84.84,0,0,0,1.27-.13c.48-.68.24-2.81-.92-4.53"
     fill="#f9b499"
     id="path3644" />
  <path
     d="M253.54,252.69a41.12,41.12,0,0,1,5.22,4.24c.69.88,1.12.33,1.09-.82a8.88,8.88,0,0,0-.75-3.16,5.69,5.69,0,0,1,1.52,3.09,3.25,3.25,0,0,1,0,.94,1.59,1.59,0,0,1-.49,1,1.3,1.3,0,0,1-1.24.25,1.22,1.22,0,0,1-.54-.32l-.31-.28A39.67,39.67,0,0,1,253.54,252.69Z"
     fill="#f7a48b"
     id="path3646" />
  <path
     d="M239.44,263.31s8.29.49,10.78-3.82c0,0,1.56-2.16,5.54.83a20.66,20.66,0,0,0-2.22,3.33s-1.1,1.31-2.22,2.76l-1.47,2.51a21.62,21.62,0,0,0-5.3.22Z"
     fill="#f7a48b"
     id="path3648" />
  <line
     x1="259.98"
     y1="262.54"
     x2="253.81"
     y2="259.98"
     fill="#f9b499"
     id="line3650" />
  <path
     d="M260,262.54a8.85,8.85,0,0,1-3.31-.74,9,9,0,0,1-2.86-1.82,8.71,8.71,0,0,1,3.31.75A8.92,8.92,0,0,1,260,262.54Z"
     fill="#f7a48b"
     id="path3652" />
  <line
     x1="256.85"
     y1="266.95"
     x2="250.01"
     y2="262.9"
     fill="#f9b499"
     id="line3654" />
  <path
     d="M256.85,267A13.86,13.86,0,0,1,250,262.9a13.94,13.94,0,0,1,6.84,4.05Z"
     fill="#f7a48b"
     id="path3656" />
  <ellipse
     cx="129.42"
     cy="215.07"
     rx="2.07"
     ry="3.2"
     fill="#f7a48b"
     id="ellipse3658" />
  <path
     d="M702.46,371.22l97.61-.45a6.36,6.36,0,0,1,4.19,1.44,5.73,5.73,0,0,1,2,3.43s1.86,4.85-7.84,5.6c0,0-11.57,1.12-16,19.78,0,0-16.42,59.34-10.45,93.68,0,0,1.49,8.58,11.2,16.79,0,0,5.47,4.1,4,7.84,0,0,2.49,3.23-13.44,2.48l-91-.2-8.23-14-6.24-23.38,2.26-50.76S670.36,386.08,702.46,371.22Z"
     fill="#bcbec0"
     id="path3660" />
  <ellipse
     cx="460.33"
     cy="314.67"
     rx="22.6"
     ry="15.04"
     transform="matrix(0.14, -0.99, 0.99, 0.14, 82.78, 725.01)"
     fill="#f9b499"
     id="ellipse3662" />
  <rect
     x="460.33"
     y="326.28"
     width="17.63"
     height="15.43"
     fill="#f9b499"
     id="rect3664" />
  <path
     d="M469.15,331.33a14.38,14.38,0,0,1-4.51,10.38h-4.31V337S466.54,335.21,469.15,331.33Z"
     fill="#f7a48b"
     id="path3666" />
  <path
     d="M523.11,373.22s-24.71,15.06-40,11.34h0a13.64,13.64,0,0,1-9.49-7.53,5.92,5.92,0,0,1-.63-3.6s-3.17,2.55-.43,8.25c0,0-12.67-3.67-13.22-14.12A13.51,13.51,0,0,1,462,359l4.85-6.73,7.4-10.57s3.41-5.71-2.52-14.27c0,0-8.47-13.85-9.74-19.34,0,0-9.95-4.67-11.43-8.88,0,0-3.3,4.68-4.22,9,0,0-6.12-7.92-1.89-14.05,0,0,1-2.75,6.29-4a27.23,27.23,0,0,1,6.81-.63,19,19,0,0,0,8.87-1.7s12.9-8.45,19.46,6.13c0,0,14.08-2.19,15.34,14.22a29.16,29.16,0,0,1-.66,8.48A25.85,25.85,0,0,0,507,340.25a49.51,49.51,0,0,1,9.42,10.09C520.58,356.14,524.22,364.1,523.11,373.22Z"
     fill="#2f2e41"
     id="path3668" />
  <path
     d="M516.46,350.34a159.61,159.61,0,0,1-17.67-13.9c-6.82-5.54-2.85-22.35-1.74-26.53a8.49,8.49,0,0,0,.27-2.35c-.16-6.51-2.9-9-5.63-9.92a6.3,6.3,0,0,0-6.9,2.3,4.91,4.91,0,0,1-5.86,1.83c.45-.39.84-.77,1.2-1.13a5.73,5.73,0,0,0-2.48-9.61,18.6,18.6,0,0,0-8.87.16,26.32,26.32,0,0,1-18-1.05,27.23,27.23,0,0,1,6.81-.63,19,19,0,0,0,8.87-1.7s12.9-8.45,19.46,6.13c0,0,14.08-2.19,15.34,14.22a29.16,29.16,0,0,1-.66,8.48A25.85,25.85,0,0,0,507,340.25,49.51,49.51,0,0,1,516.46,350.34Z"
     opacity="0.2"
     id="path3670" />
  <ellipse
     cx="465.39"
     cy="317.31"
     rx="3.38"
     ry="4.76"
     fill="#f9b499"
     id="ellipse3672" />
  <path
     d="M704.46,376.61a8.7,8.7,0,0,1-5.51,5,9.81,9.81,0,0,1-2.63.51c-2.3.19-8.39,1.74-13.24,12.22,0,0-6.41,10.68-11.72,54.19,0,0-4,41.85,2.66,54.79L684.82,514a4.52,4.52,0,0,1,.58,5.76h0a4.52,4.52,0,0,1-6.67.93l-4.66-3.92s1.28,7.83-7.35-.46l-78.92-5.64s-8.54,2.18-9,13.27c0,0-7.52,1.56-6.62-8,0,0,3.37-13.94,15.61-15.6l80.31,6s-6.37-1.33-5-37.82c0,0,3.65-49.1,11.61-72.32,0,0,3.65-16.59,16.09-22.23,0,0,10.71-5.88,13.57-.36A3.76,3.76,0,0,1,704.46,376.61Z"
     fill="#d1d3d4"
     id="path3674" />
  <path
     d="M666.58,635.52l6.51-107.66,5.06,26-5.69,82.07a2.94,2.94,0,0,1-2.94,2.74h0A3,3,0,0,1,666.58,635.52Z"
     fill="#bcbec0"
     id="path3676" />
  <path
     d="M474.28,525.07,575.9,526.3s1.33-1.19,1.4-4.25a10.44,10.44,0,0,0-4.27-8.49c-4.12-3.09-11.26-10.55-11.58-25.3,0,0,4.51-68.19,12.19-89,0,0,2.26-16.26,19.87-18.06,0,0,5.86-1.88,3.42-6.58a7.55,7.55,0,0,0-6.73-3.9H489.36s-25,14.37-26.1,40.27-10.65,34.77-6.58,81.29A46,46,0,0,0,474.28,525.07Z"
     fill="#bcbec0"
     id="path3678" />
  <path
     d="M494.16,374.77s2.15,5.88-6.47,7.8c0,0-11.95.95-17.91,19.4,0,0-10.19,34.49-11.15,70.89,0,0-1.94,33.16,14,44a6,6,0,0,1,1.77,8.06l-.09.15s-2.88,4.07-7.19-2.63c0,0-1.91-3.36-3.83,0,0,0-.31,3.11-4.71-.72,0,0-3.19-2.16-11.82-1.92l-66.79-5.27a8.91,8.91,0,0,0-10,3.36s-3.64,12-9.12,6.54c0,0-2.86-3.73,3.36-12.32,0,0,5.6-9,15.73-7.46l76.71,4.23s-7.51-11.53-3.55-46.7c0,0,2.28-37.95,11.88-66.42A43.25,43.25,0,0,1,479.76,375C485.39,370.77,491.64,368.17,494.16,374.77Z"
     fill="#d1d3d4"
     id="path3680" />
  <polygon
     points="322.69 390.94 323.06 392.88 361.87 392.88 361.29 390.94 322.69 390.94"
     fill="#5EA4E2"
     id="polygon3682" />
  <polygon
     points="323.77 394.84 324.18 396.78 367.93 396.78 367.49 394.84 323.77 394.84"
     fill="#5EA4E2"
     id="polygon3684" />
  <polygon
     points="324.38 398.24 324.81 400.18 363.63 400.18 363.18 398.24 324.38 398.24"
     fill="#5EA4E2"
     id="polygon3686" />
  <polygon
     points="325.25 402.14 325.67 404.08 369.53 404.08 369.1 402.14 325.25 402.14"
     fill="#5EA4E2"
     id="polygon3688" />
  <polygon
     points="326.16 406.2 326.59 408.14 353.57 408.14 353.17 406.2 326.16 406.2"
     fill="#5EA4E2"
     id="polygon3690" />
  <polygon
     points="327.03 410.1 327.47 412.04 357.63 412.04 357.18 410.1 327.03 410.1"
     fill="#5EA4E2"
     id="polygon3692" />
  <polygon
     points="327.9 413.98 328.35 415.92 367.15 415.92 366.72 413.98 327.9 413.98"
     fill="#5EA4E2"
     id="polygon3694" />
  <polygon
     points="328.77 417.85 329.21 419.79 372.99 419.81 372.56 417.87 328.77 417.85"
     fill="#5EA4E2"
     id="polygon3696" />
  <text
     xml:space="preserve"
     style="font-size:67.8654px;line-height:1.25;font-family:NokioSans-Medium;-inkscape-font-specification:NokioSans-Medium;fill:#5ea4e2;fill-opacity:1;stroke-width:1.69663"
     x="400.3338"
     y="165.29402"
     id="text4014"><tspan
       sodipodi:role="line"
       id="tspan4012"
       x="400.3338"
       y="165.29402"
       style="stroke-width:1.69663">TP</tspan></text>
</svg>
