<svg id="b5d8b77f-96cf-4e22-9d27-47a411eccd25" data-name="Layer 1" xmlns="http://www.w3.org/2000/svg" width="865.76" height="682.89" viewBox="0 0 865.76 682.89"><path d="M413.62,247.77s-8.47-1.05-1.31-13.41c0,0,6.73-12.91,13.69-5.17C426,229.19,418.9,228.73,413.62,247.77Z" fill="#2f2e41"/><path d="M410.36,238.37s-12.52,3.36-26.18-7.64c0,0-16.32-12.15-20.87-17.84,0,0-8-2.66-3-5.31,0,0-8.34-5.31,4.94-3.8,0,0-3.42-9.27,16.69-.27l22.77,11s-16.31-8.79-10.62-13.34l12.14,9.21s9.59,1.87,9.11,10.9c0,0-2.17,4.48,2.42,6.72C417.72,228,415.88,228.5,410.36,238.37Z" fill="#f9b499"/><path d="M695.91,234.36,696,234a56.17,56.17,0,0,1,11.31-21.95,45.15,45.15,0,0,1,3.76-4.06s6.95-4.42,7.9-15.79c0,0,9.47,4.42-2.53,22.26h13.84a31.32,31.32,0,0,0,12.64-2.68c6.55-2.89,16.47-6.44,16.47-1.45,0,0,3.9-1.71,5,1.24,0,0,.21,2.31-5.26,3.79,0,0,5.68-1.06,4.42,1.26,0,0-14.19,9.83-19.71,11.3a7.82,7.82,0,0,0-3.43,1.91,20.28,20.28,0,0,1-12.13,5.66,7.22,7.22,0,0,0-2.84.82,15,15,0,0,1-4.42,1.46,22,22,0,0,0-12.15,6.66l-2.8,3.05" fill="#f9b499"/><path d="M545.8,384.85l-1.27,84.22,3.79,80,4.63,45,3.79,18.11c-5.89,7.16-24,0-24,0-11,0-15.16-6.32-15.16-6.32-5.47-.84-2.94-9.68-2.94-9.68a63.33,63.33,0,0,0,2.94-18.11l-3.79-19c-2.1-13-3.79-29.47-3.79-29.47,0-24.43-6.31-59-6.31-59-7.16-42.11-2.95-105.44-2.95-105.44l17.74-79.13,73.64,35.92L601,387s12.21,85.48,11.37,103.59c0,0,.84,18.95,4.21,27.79l8,52.21s.84,7.58,3.37,29.06c0,0,5.05,18.1-14.32,18.53,0,0-27,4.63-26.53-13.48,0,0-4.21-80-12.63-106.11h0a71.89,71.89,0,0,0-2.69-22.32Z" fill="#2f2e41"/><path d="M589.17,164.41s43.79,19.17,44.21,31.8v2.95s6.32.63,3,9.89c0,0,14.53,41.69,17,51.58,0,0,11.58-8.21,16-10.1,0,0,10.32-5.48,15.37-11.16,0,0,7-9.26,10.74-2.53,0,0,15,15.16,12,24.64,0,0-45,40.42-61.26,37.47,0,0-29.27-37.47-32-58.95,0,0-15.16,42.53-19.79,50.95,0,0,5.16,42.74,15.27,62.32,0,0-22.43,18-61.59,5.37,0,0-14-42.32-14.25-62.53,0,0-4.7,60.32-16.7,69.16,0,0-14.84,1-17.37-5.37l12.95-60.63s-6-28.74-4.1-43.58c0,0-19.58,25.89-25.27,28.1,0,0-62.21-15.58-71.06-24.63,0,0,.73-29.35,14.41-30.71a9.42,9.42,0,0,1,4.73.81l42.34,18.32s23.58-27.37,29.06-45.06c0,0,12.21-38.11,45.61-42.53Z" fill="#5EA4E2"/><path d="M554.11,144.2l1.27,15.48s14.89,6.54,26.52-2.21V142.94Z" fill="#f9b499"/><path d="M574.4,174.21l-9.23-12.69-12.64,7.63s-10.61-7.93,2.43-14.54l.42,5.07s14.52,6,26.52-2.21c0,0,5.69-.65,7.27,6.94C589.17,164.41,587.43,169.78,574.4,174.21Z" fill="#2f2e41"/><path d="M548.46,160s-22.77,2.85-10.77,10.11c0,0-10.74,3.79-9.79,31.27,0,0-4.42,48.32,4.11,67.58,0,0,14.21-18,23.37-26.84,0,0,37.26-39.48,42.63-57.8,0,0-3.47-6.31-5.37-6.95,0,0,16.74,5.37,8.85-4.73,0,0-6.64-5.71-12.32-8.22,0,0,3.47,6.64-9.16,25,0,0-9.16,18-22.74,31.58,0,0-18.32,22.74-21.16,37.26a125.33,125.33,0,0,1,0-47.69s6.26-41.38,12.76-46.11C548.87,164.41,548.65,162.36,548.46,160Z" opacity="0.2"/><path d="M535.72,212.72s13.66-21.14,18.39-27.46c0,0,6-6,2.21-11,0,0-4.07-4.89-.91-6.79l9.76-5.9,9.23,12.69s-5,5.37-10.29,5.37c0,0-1.87,34.78-6.84,41.37,0,0-16.74,21.27-21.55,38.21C535.72,259.16,531.55,235.39,535.72,212.72Z" fill="#2f2e41"/><path d="M522.37,609.85s-8.58,7.86-11.94,12.07c0,0-13,10.81-22.65,13.14a6.53,6.53,0,0,0-4.32,3.39c-1.1,2.23-1,5.24,5,7.55a23.76,23.76,0,0,0,10.34,1.39c8-.64,25-3.13,36.85-12.83v2.94s19.37,1.27,20.63-5.47l-2-17.89s-6.12,3.43-21.59-1.9C532.74,612.24,525.41,611.93,522.37,609.85Z" fill="#5EA4E2"/><path d="M594,616.31s-7,14-6.16,23a7.7,7.7,0,0,0,6.52,6.88c5.64.86,18.31,2.34,26-.32a7,7,0,0,0,4.52-7.79c-1-5.79-3-16-5.38-20.8C619.51,617.29,604.75,620.57,594,616.31Z" fill="#5EA4E2"/><path d="M694.25,235.26s3.87-4.21,9.56,5.58l4.52,8.37a4.79,4.79,0,0,1-1,5.84h0S698.34,241.24,694.25,235.26Z" fill="#2f2e41"/><path d="M332.19,564.79a65.68,65.68,0,0,0-4.26-20.38c-.17-.45-.35-.89-.54-1.34a61.59,61.59,0,0,0-3.64-7.49,55.44,55.44,0,0,0-20.6-20.94l-.49-.27a52.36,52.36,0,0,0,2.61-23.55c-2-15.92-10.9-30.09-21.64-41.65-19.92-21.46-47.93-34.28-67.26-56.15l-.75-.86c-.26-.29-.5-.6-.76-.9a89.15,89.15,0,0,1-7.06-9.55,96.24,96.24,0,0,1-9-18.21c-.82-2.22-1.58-4.48-2.24-6.74s-1.25-4.48-1.75-6.75-.92-4.48-1.27-6.74-.62-4.48-.82-6.74-.34-4.49-.39-6.74a104.41,104.41,0,0,1,4.26-32.49c.11-.37.22-.73.34-1.1s.23-.75.35-1.12.2-.64.31-1c5.21-15.55,14.48-28.64,25.95-40.21,7.17-7.24,14.91-13.93,22.34-20.9l.81-.77.86-.79a178.37,178.37,0,0,0,13.37-14,98.54,98.54,0,0,0,6.77-9,78.78,78.78,0,0,0,4.1-6.75c1.22-2.2,2.32-4.44,3.32-6.74s1.81-4.46,2.54-6.74a62.36,62.36,0,0,0,1.76-6.74,56.7,56.7,0,0,0,1-6.74.15.15,0,0,0,0-.07,45.09,45.09,0,0,0-9.68-32.14c-.27-.35-.56-.69-.85-1s-.57-.68-.87-1a47.83,47.83,0,0,0-4.83-4.72c-18.44-15.61-42.59-18.25-64.94-25.24l-1.06-.34c-.37-.12-.74-.23-1.11-.36a105.13,105.13,0,0,1-16.71-6.94l-.19-.1a62.84,62.84,0,0,1-8.65-5.58,53,53,0,0,1-7.31-6.74q-.85-.94-1.65-1.92c-1.25-1.52-3.31.32-2.65,1.92a1.47,1.47,0,0,0,.27.47,53.81,53.81,0,0,0,6,6.27,60.32,60.32,0,0,0,9.13,6.75,95,95,0,0,0,20.09,8.84c.37.12.74.23,1.11.36l1.09.33c13.54,4.22,27.88,6.9,40.71,11.69,9.71,3.62,19.48,8.63,26.84,16.06.3.31.61.62.9.94s.6.64.89,1a42.56,42.56,0,0,1,4.74,6.5,41.55,41.55,0,0,1,5.28,25.09,56.47,56.47,0,0,1-1,6.74,58.53,58.53,0,0,1-1.87,6.74c-.67,2-1.46,4-2.32,6-.11.26-.24.52-.35.76a75.26,75.26,0,0,1-3.51,6.74c-1.34,2.33-2.79,4.57-4.34,6.75a146.26,146.26,0,0,1-18.67,20.88l-.84.8-.8.76C231,242.4,217.88,253.22,208,266.68A95.41,95.41,0,0,0,193.75,295c-.12.37-.24.74-.34,1.12s-.24.74-.34,1.13A107.69,107.69,0,0,0,189,329.79c.05,2.25.18,4.49.38,6.74s.45,4.51.79,6.74c.15,1.11.33,2.22.54,3.32s.42,2.29.68,3.42c.47,2.27,1,4.52,1.66,6.75s1.37,4.51,2.17,6.74a99.09,99.09,0,0,0,11,21.88q2.56,3.8,5.46,7.27l.78.92c.25.31.5.6.76.89,7.67,8.83,16.8,16.34,26.19,23.36,24.77,18.51,56,37.53,62.14,70.55a49,49,0,0,1-1.91,24.45,48.79,48.79,0,0,0-11.23-3.63,57.58,57.58,0,0,0-35.33,5l-1,.51-1,.56a41.83,41.83,0,0,0-16.52,15.69,34.62,34.62,0,0,0-2.88,6.74,34.22,34.22,0,0,0-1.33,6.74c-.1,1-.16,2.12-.17,3.21a29.7,29.7,0,0,0,.18,3.53,24.84,24.84,0,0,0,1.72,6.74,18.65,18.65,0,0,0,4,6.06c.23.23.47.47.72.68a19.27,19.27,0,0,0,17.8,3.95,29.3,29.3,0,0,0,5-1.77c.52-.22,1-.47,1.52-.74s1-.52,1.48-.8a58.77,58.77,0,0,0,11.87-9.37,157.66,157.66,0,0,0,16.32-19.15c.72-1,1.42-2,2.12-3a82.76,82.76,0,0,0,8.75-16.23,51.63,51.63,0,0,1,19.17,19.28,56.66,56.66,0,0,1,4.08,8.54c.18.43.34.87.5,1.3.33.93.65,1.87.93,2.81a61.56,61.56,0,0,1,2.66,17.36c0,1.81,0,3.63-.19,5.43,0,.49-.08,1-.14,1.46a58.83,58.83,0,0,1-4.28,16.8c-.3.73-.63,1.46-1,2.18A73,73,0,0,1,296.11,623a78.61,78.61,0,0,1-19.46,8.9c-2.06.62-1.19,3.88.9,3.25,21.81-6.58,41.25-22.76,49.92-43.78a63,63,0,0,0,4.59-19c0-.19,0-.38,0-.58,0-.57.08-1.13.1-1.7C332.27,568.34,332.26,566.57,332.19,564.79Zm-43.68-30.87a154.67,154.67,0,0,1-16,19,64.28,64.28,0,0,1-8.61,7.45c-.46.33-.93.64-1.4,1s-1,.59-1.44.87a27.75,27.75,0,0,1-8.67,3.42,15.87,15.87,0,0,1-11.46-2,14.64,14.64,0,0,1-5.27-5.69,6.63,6.63,0,0,1-.31-.59,20.32,20.32,0,0,1-1.74-6.15,26.67,26.67,0,0,1,0-6.74,32.82,32.82,0,0,1,1.18-5.55c.13-.41.26-.8.4-1.19a30.71,30.71,0,0,1,3.35-6.74,40.72,40.72,0,0,1,14.51-13.12l1-.55c.33-.18.66-.34,1-.5a49.6,49.6,0,0,1,7.71-3A51.11,51.11,0,0,1,298.47,516,82.82,82.82,0,0,1,288.51,533.92Z" fill="#ccc"/><circle cx="153.13" cy="87.1" r="50.56" fill="#fff"/><path d="M153.13,35.42a51.69,51.69,0,1,0,44.41,78.07c.59-1,1.14-1.95,1.65-3a51.68,51.68,0,0,0-46.06-75.11Zm0,101.12A49.48,49.48,0,1,1,197,109.83q-.78,1.52-1.68,3A49.44,49.44,0,0,1,153.13,136.54Z" fill="#ccc"/><path d="M177.85,77H128.41A3.37,3.37,0,0,1,125,73.62h0a3.37,3.37,0,0,1,3.37-3.37h49.44a3.37,3.37,0,0,1,3.37,3.37h0A3.37,3.37,0,0,1,177.85,77Z" fill="#ccc"/><path d="M177.85,90.47H128.41A3.37,3.37,0,0,1,125,87.1h0a3.37,3.37,0,0,1,3.37-3.37h49.44a3.37,3.37,0,0,1,3.37,3.37h0A3.37,3.37,0,0,1,177.85,90.47Z" fill="#ccc"/><path d="M177.85,104H128.41a3.37,3.37,0,0,1-3.37-3.38h0a3.37,3.37,0,0,1,3.37-3.37h49.44a3.37,3.37,0,0,1,3.37,3.37h0A3.37,3.37,0,0,1,177.85,104Z" fill="#ccc"/><circle cx="193.58" cy="346.64" r="50.56" fill="#fff"/><path d="M197.24,295.08c-1.16-.08-2.31-.12-3.49-.12h-.17a51.69,51.69,0,1,0,19.6,99.5c1.08-.45,2.15-.93,3.19-1.44a51.68,51.68,0,0,0-19.13-97.94Zm-3.66,101a49.44,49.44,0,0,1-.51-98.87h.51q1.5,0,3,.09a49.43,49.43,0,0,1,18.31,94c-1.06.51-2.13,1-3.22,1.39A49,49,0,0,1,193.58,396.08Z" fill="#ccc"/><path d="M218.3,336.53H168.86a3.37,3.37,0,0,1-3.37-3.37h0a3.37,3.37,0,0,1,3.37-3.37H218.3a3.37,3.37,0,0,1,3.37,3.37h0A3.37,3.37,0,0,1,218.3,336.53Z" fill="#ccc"/><path d="M218.3,350H168.86a3.37,3.37,0,0,1-3.37-3.37h0a3.37,3.37,0,0,1,3.37-3.37H218.3a3.37,3.37,0,0,1,3.37,3.37h0A3.37,3.37,0,0,1,218.3,350Z" fill="#ccc"/><path d="M218.3,363.5H168.86a3.37,3.37,0,0,1-3.37-3.37h0a3.37,3.37,0,0,1,3.37-3.37H218.3a3.37,3.37,0,0,1,3.37,3.37h0A3.37,3.37,0,0,1,218.3,363.5Z" fill="#ccc"/><circle cx="213.8" cy="547.76" r="50.56" fill="#fff"/><path d="M255.1,516.74c-.66-.89-1.35-1.74-2.06-2.59a51.66,51.66,0,1,0,9.39,51.1,46.53,46.53,0,0,0,1.5-4.92A51.55,51.55,0,0,0,255.1,516.74ZM213.8,597.2a49.44,49.44,0,1,1,37.19-82c.73.83,1.43,1.69,2.1,2.57a49.36,49.36,0,0,1,8,44.37,47.23,47.23,0,0,1-1.66,4.63A49.52,49.52,0,0,1,213.8,597.2Z" fill="#ccc"/><path d="M238.52,537.65H189.08a3.37,3.37,0,0,1-3.37-3.37h0a3.37,3.37,0,0,1,3.37-3.37h49.44a3.37,3.37,0,0,1,3.37,3.37h0A3.37,3.37,0,0,1,238.52,537.65Z" fill="#ccc"/><path d="M238.52,551.13H189.08a3.37,3.37,0,0,1-3.37-3.37h0a3.37,3.37,0,0,1,3.37-3.37h49.44a3.37,3.37,0,0,1,3.37,3.37h0A3.37,3.37,0,0,1,238.52,551.13Z" fill="#ccc"/><path d="M238.52,564.61H189.08a3.37,3.37,0,0,1-3.37-3.37h0a3.37,3.37,0,0,1,3.37-3.37h49.44a3.37,3.37,0,0,1,3.37,3.37h0A3.37,3.37,0,0,1,238.52,564.61Z" fill="#ccc"/><circle cx="276.72" cy="191.59" r="50.56" fill="#2f2e41"/><path d="M301.44,181.48H252a3.37,3.37,0,0,1-3.37-3.37h0a3.37,3.37,0,0,1,3.37-3.37h49.44a3.37,3.37,0,0,1,3.37,3.37h0A3.37,3.37,0,0,1,301.44,181.48Z" fill="#fff"/><path d="M301.44,195H252a3.37,3.37,0,0,1-3.37-3.37h0a3.37,3.37,0,0,1,3.37-3.37h49.44a3.37,3.37,0,0,1,3.37,3.37h0A3.37,3.37,0,0,1,301.44,195Z" fill="#fff"/><path d="M301.44,208.45H252a3.37,3.37,0,0,1-3.37-3.37h0A3.37,3.37,0,0,1,252,201.7h49.44a3.37,3.37,0,0,1,3.37,3.38h0A3.37,3.37,0,0,1,301.44,208.45Z" fill="#fff"/><ellipse cx="574.4" cy="106.63" rx="46.79" ry="30.12" transform="translate(337.68 640.74) rotate(-76.61)" fill="#f9b499"/><ellipse cx="603.24" cy="120.48" rx="8.89" ry="4.85" transform="translate(181.36 568.17) rotate(-57.99)" fill="#f9b499"/><ellipse cx="544.82" cy="103.79" rx="4.85" ry="8.89" transform="translate(-7.78 56.48) rotate(-5.89)" fill="#f9b499"/><path d="M549.44,86.9s-9.54-25.44,3.41-34l6.63-2.21s-5.37-2.37-11.53,2.37c0,0,1.74-6.31,14.22-4.74,0,0,.31-1.73-2.37-2.05,0,0,4-2.37,10.42.63,0,0,.63-2-4.42-3,0,0,2.37-3.47,13.74,1.9,0,0,1.1-2.84-5.14-4.11,0,0,11.93-.47,19,8.06A14.94,14.94,0,0,0,590,42.67s9.95,5.53,12.79,11c0,0,1.74-1.42,0-6,0,0,8.37,6.32,9.31,14.53a10.37,10.37,0,0,0,0-6.63s12.64,8.68,8.22,28.9c0,0-6.16,18.63-8.22,21.47a29.61,29.61,0,0,0,5.22-7.74s-2.69,12.48-9.33,14.69c0,0-3.05-2.06-7.36,3,0,0-3.37-5.36,1.21-9.94,0,0,3.61-17-.63-27.16l-.63,2.69s-3.79-12-7.9-14.53c0,0,1,5.1,3.32,6.79,0,0-16.11-8.53-16.11-14.69,0,0-1.27,5.21,3.78,9.48,0,0-5.34-4.93-10.87-6.51a7.42,7.42,0,0,1,2.51,4,23.45,23.45,0,0,0-7.51-1.52A48.79,48.79,0,0,0,549.44,86.9Z" fill="#2f2e41"/><path d="M554.35,147.17l.24,2.47s1.68,2.07,7.19,2C561.78,151.62,556.67,149.63,554.35,147.17Z" fill="#f4a48e"/><circle cx="531.83" cy="273.63" r="1.3" fill="#2f2e41"/><circle cx="531.83" cy="282.86" r="1.3" fill="#2f2e41"/><circle cx="533.86" cy="290.44" r="1.3" fill="#2f2e41"/></svg>